<svg width="13" height="37" viewBox="0 0 13 37" fill="none" xmlns="http://www.w3.org/2000/svg">
<path fill-rule="evenodd" clip-rule="evenodd" d="M10.2744 35.0751C10.6096 33.4008 10.2612 31.0569 10.2535 28.7129C10.2601 30.722 10.2667 32.7311 10.2744 35.0751ZM12.6627 36.0796C12.3131 33.4008 12.645 30.722 12.9769 28.0432C12.6329 27.0387 11.9515 27.0387 11.2701 27.0387C9.90834 27.3735 8.88512 27.0387 9.57094 28.3781C9.92046 31.0569 9.92817 33.4008 9.59518 35.7448C9.93589 35.7448 10.6173 35.7448 10.958 35.7448C11.6394 35.7448 11.979 35.4099 12.6627 36.0796ZM10.2457 26.369C10.5809 24.6947 10.2325 22.3508 10.2248 20.0068C10.2314 22.0159 10.238 24.025 10.2457 26.369ZM10.216 17.328C10.5523 15.9886 10.2028 13.3098 10.1962 11.3008C10.2028 13.3098 10.2083 14.9841 10.2171 17.6629C10.2171 17.6629 10.2171 17.6629 10.216 17.328ZM12.6043 18.3326C12.2559 15.9886 12.5877 13.3098 12.9185 10.2962C12.5756 9.6265 11.8942 9.6265 11.2128 9.6265C9.85106 9.96135 8.82783 9.6265 9.51365 10.9659C9.86208 13.3098 9.87089 15.9886 9.53789 18.3326C9.8786 18.3326 10.56 18.3326 10.9007 18.3326C11.581 17.9977 11.9218 17.9977 12.6043 18.3326ZM10.1874 8.62195C10.5237 7.28255 10.1741 4.60376 10.1675 2.59466C10.1741 4.60376 10.1796 6.278 10.1885 8.9568L10.1874 8.62195ZM12.5756 9.6265C12.2272 7.28255 12.5591 4.60376 12.8899 1.59011C12.547 0.92041 11.8656 0.92041 11.1842 0.92041C9.82242 1.25526 8.79809 0.58556 9.48501 2.25981C9.83343 4.60376 9.84225 7.28255 9.50925 9.6265C9.84996 9.6265 10.5314 9.6265 10.871 9.29165C11.5524 9.29165 11.8931 9.29165 12.5756 9.6265ZM8.17065 16.9932C7.14632 16.3235 6.4627 15.6538 5.43837 14.9841C6.4627 15.6538 7.14522 15.9886 8.17065 16.9932C6.80341 15.6538 5.77797 14.6492 4.41183 13.6447C5.43727 14.6492 6.4616 15.3189 7.82884 16.6583C6.46049 14.9841 5.09435 13.9795 4.06782 12.6401C5.09325 13.6447 6.11868 14.6492 7.48703 16.3235C6.45939 14.6492 5.09215 13.3098 3.72491 11.9704C5.09215 13.3098 6.46049 14.9841 8.17065 16.9932C8.51246 17.328 8.51246 17.328 8.17065 16.9932ZM7.48923 16.9932C7.48923 16.9932 7.14852 16.9932 7.14742 16.6583C5.09986 15.6538 3.39301 14.6492 1.68726 13.9795C3.0534 14.9841 4.75915 15.6538 6.4649 16.3235C4.75915 15.6538 3.39411 14.9841 2.03018 14.6492C3.39521 15.3189 5.10096 15.9886 6.80671 16.6583C5.44167 15.9886 4.07773 15.6538 2.7138 15.3189C4.41954 15.9886 5.78348 16.3235 7.14852 16.9932C6.12529 16.6583 5.10206 16.3235 4.07884 15.9886C5.10206 16.3235 6.12529 16.6583 7.14852 16.9932C7.48923 16.9932 7.48923 16.9932 7.48923 16.9932ZM7.49584 19.0023C6.81442 19.0023 6.13411 19.3371 5.11198 19.3371C5.7934 19.3371 6.47371 19.0023 7.49584 19.0023C6.47371 19.0023 5.11198 19.3371 4.08985 19.3371C5.11198 19.3371 6.133 19.0023 7.15513 19.0023C5.7923 19.0023 4.42946 19.0023 3.06773 19.3371C4.08875 19.0023 5.45159 19.0023 6.81442 19.0023C5.45159 19.0023 4.08875 19.0023 2.72591 19.0023C4.08875 19.0023 5.79119 18.6674 7.49474 18.6674C7.83545 18.6674 7.83655 19.0023 7.49584 19.0023ZM7.49694 19.3371C7.15623 19.3371 7.15623 19.3371 7.15623 19.3371C5.45489 20.0068 4.09426 20.6765 3.07434 21.3462C4.09426 20.6765 5.45489 20.0068 6.47592 19.672C5.45599 20.3417 4.43497 20.6765 3.41504 21.3462C4.43497 20.6765 5.7956 20.0068 6.81552 19.3371C5.7956 20.0068 5.11639 20.6765 4.43607 21.0114C5.11639 20.6765 6.13631 20.0068 7.15623 19.3371C6.47702 20.0068 5.7967 20.3417 5.45709 20.6765C6.13741 20.3417 6.47592 19.672 7.15623 19.3371L7.49694 19.3371ZM8.51797 19.0023C8.85868 19.0023 8.85868 19.0023 9.19939 19.0023C9.20049 19.3371 9.20049 19.3371 9.5423 19.672C9.89182 22.3508 9.89953 24.6947 9.56653 27.0387C9.90724 27.0387 10.5887 27.0387 10.9294 27.0387C11.6097 26.7038 11.9504 26.7038 12.6329 27.0387C12.2845 24.6947 12.6164 22.0159 12.9472 19.0023C12.6043 18.3326 11.9229 18.3326 11.2414 18.3326C10.2204 18.6674 9.53789 18.3326 9.19828 18.6674C9.19718 18.3326 8.85537 17.9977 8.85427 17.6629C8.85317 17.328 8.51136 16.9932 8.16734 15.9886C6.799 14.3144 4.40633 11.9704 3.04018 10.9659C3.04349 11.9704 4.75364 13.9795 6.12199 15.6538C4.41514 14.6492 2.02687 13.6447 0.323325 13.6447C1.34986 14.9841 6.46821 17.328 8.17285 17.6629C8.17285 17.6629 8.51356 17.6629 8.51466 17.9977C8.85647 18.3326 9.19828 18.6674 9.19939 19.0023C8.85868 19.0023 8.51797 19.0023 8.17616 18.6674C8.17616 18.6674 7.83545 18.6674 7.15403 18.6674C5.44938 18.3326 3.06552 18.6674 1.70379 19.0023C2.38741 19.672 4.43166 19.672 6.13411 19.3371C4.77347 20.0068 3.07323 21.0114 2.05331 21.6811C3.41725 22.0159 7.15844 20.0068 7.83655 19.0023C8.17726 19.0023 8.17726 19.0023 8.51797 19.0023Z" fill="#468E0D"/>
</svg>
