<svg width="36" height="15" viewBox="0 0 36 15" fill="none" xmlns="http://www.w3.org/2000/svg">
<path d="M35.4879 1.31943C32.4472 2.4222 30.6851 6.14363 30.6851 6.14363C10.9439 -6.6063 0.351713 7.86712 0.351713 7.86712C0.351713 7.86712 11.0273 22.3406 30.695 9.58978C30.695 9.58978 32.4783 13.3116 35.5258 14.414C35.5258 14.414 33.6815 11.3818 33.6714 7.86671C33.6616 4.35205 35.4879 1.31943 35.4879 1.31943ZM6.63876 7.6738C6.05974 7.6738 5.58907 7.15646 5.58723 6.5185C5.58538 5.88054 6.05306 5.36362 6.63208 5.36362C7.2111 5.36362 7.68176 5.88054 7.6836 6.5185C7.68545 7.15646 7.21778 7.6738 6.63876 7.6738ZM10.521 12.0361C10.4485 12.1496 10.3331 12.2089 10.216 12.2089C10.1409 12.2089 10.0641 12.1836 9.99761 12.1307C9.82901 11.9983 9.78936 11.7398 9.90935 11.5545C12.0693 8.22056 10.0009 5.4939 9.91248 5.37959C9.77695 5.20602 9.79412 4.94504 9.95084 4.79668C10.1068 4.64791 10.343 4.66682 10.4793 4.83955C10.5049 4.87275 13.03 8.16383 10.521 12.0361Z" fill="#7A7871"/>
</svg>
