<svg width="31" height="24" viewBox="0 0 31 24" fill="none" xmlns="http://www.w3.org/2000/svg">
<path fill-rule="evenodd" clip-rule="evenodd" d="M16.8685 0.985779C16.7412 0.985779 16.6141 0.985782 16.4871 0.98874C16.1963 0.992289 15.9062 1.00056 15.6171 1.01299C13.1264 1.1203 10.6185 1.54423 8.29247 2.44217C5.96336 3.34127 3.82984 4.72412 2.28428 6.57038C1.58716 7.40319 0.962633 8.38961 0.799117 9.53652C0.77089 9.73413 0.757539 9.93508 0.760079 10.1372L0.774576 13.5606L0.774717 13.5939C0.776384 13.9875 0.841649 14.3859 0.9826 14.7738C1.19443 15.3567 1.57595 15.9005 2.1272 16.3106C2.60492 16.666 3.1575 16.8833 3.70599 17.0104C4.25194 17.1369 4.78982 17.1748 5.29811 17.1829C6.31354 17.1992 7.22427 17.1137 8.00857 17.23C9.40951 17.4378 10.7096 18.29 11.8961 19.289C13.0897 20.2938 14.2625 21.494 15.8531 22.3475C17.7885 23.386 20.1247 23.7352 22.3249 23.3702C24.5224 23.0057 26.5301 21.946 27.9856 20.4462C29.5149 18.8703 30.4138 16.8329 30.4964 14.7416C30.5012 14.6214 30.5024 14.5013 30.5015 14.3812L30.4869 10.9246C30.4818 8.94677 29.7511 6.98456 28.4164 5.40037C26.9437 3.65234 24.8239 2.44373 22.5634 1.76301C20.7138 1.20602 18.7807 0.991115 16.8692 0.986826L16.8685 0.985779ZM16.9213 2.43522C17.0567 2.43522 17.192 2.43818 17.3272 2.44084C18.9491 2.4763 20.5499 2.68273 22.0534 3.13549C24.0525 3.7375 25.8906 4.80259 27.1265 6.2695C28.3062 7.66972 28.9336 9.45559 28.8644 11.2062C28.7952 12.957 28.0293 14.6938 26.7476 16.0146C25.5284 17.2709 23.8257 18.1653 22.0093 18.4666C20.1955 18.7675 18.2405 18.4713 16.6659 17.6265C15.3604 16.926 14.2538 15.8227 12.9871 14.7562C11.7133 13.6837 10.1783 12.6073 8.25213 12.3217C7.17222 12.1615 6.17879 12.2693 5.30595 12.2553C4.87015 12.2482 4.45961 12.2144 4.0906 12.1289C3.72413 12.044 3.39324 11.9046 3.14332 11.7187C2.8572 11.5058 2.63087 11.1948 2.50605 10.8514C2.38024 10.5051 2.34859 10.1137 2.40408 9.72449C2.51564 8.94187 2.97631 8.16309 3.58029 7.44158C4.92987 5.82937 6.83262 4.58493 8.93774 3.77232C11.0459 2.9585 13.3629 2.56025 15.701 2.4595C16.1079 2.44205 16.515 2.43347 16.9213 2.43524L16.9213 2.43522ZM16.9198 3.81673C16.5426 3.81377 16.1625 3.82295 15.781 3.83951C13.5884 3.93399 11.4533 4.3078 9.55296 5.04138C7.66144 5.77155 5.97876 6.88396 4.816 8.27297C4.30077 8.88844 3.99654 9.46921 3.93451 9.90446C3.90435 10.1158 3.92827 10.3046 3.97312 10.4281C4.01499 10.5432 4.09325 10.6323 4.12654 10.6571C4.15967 10.6816 4.27924 10.7466 4.47182 10.7912C4.6718 10.8376 4.96075 10.8679 5.32774 10.8738C6.06466 10.8856 7.13681 10.7565 8.49849 10.9585C10.9254 11.3183 12.6845 12.6085 14.0416 13.751C15.3781 14.8764 16.4216 15.8873 17.4552 16.442C18.6858 17.1023 20.2773 17.3477 21.7228 17.108C23.176 16.8669 24.5877 16.1301 25.5816 15.106C26.6272 14.0285 27.2663 12.5781 27.3227 11.1519C27.379 9.72638 26.8554 8.23733 25.8963 7.09885C24.8862 5.89995 23.3165 4.97169 21.5667 4.44475C20.2422 4.04589 18.7972 3.85433 17.2961 3.82173C17.171 3.81877 17.0456 3.81731 16.9198 3.81671L16.9198 3.81673ZM20.7058 9.75364C21.4341 9.75365 22.1333 9.94638 22.6497 10.2894C23.1661 10.6324 23.4574 11.0977 23.4595 11.5828C23.4615 12.0679 23.1742 12.5332 22.6607 12.8762C22.1472 13.2192 21.4496 13.412 20.7213 13.412C20.3607 13.412 20.0034 13.3647 19.6699 13.2727C19.3363 13.1808 19.033 13.0461 18.7773 12.8762C18.5216 12.7064 18.3185 12.5047 18.1796 12.2828C18.0406 12.0609 17.9686 11.823 17.9676 11.5828C17.9665 11.3426 18.0366 11.1047 18.1736 10.8828C18.3107 10.6609 18.5121 10.4592 18.7664 10.2894C19.0207 10.1195 19.3228 9.98479 19.6556 9.89287C19.9884 9.80095 20.3452 9.75364 20.7058 9.75364Z" fill="#EE8383"/>
</svg>
