<svg width="217" height="238" viewBox="0 0 217 238" fill="none" xmlns="http://www.w3.org/2000/svg">
<path d="M98.5009 13.1322C97.6203 12.3149 96.7397 11.7155 95.9141 11.2796C95.0885 10.8981 94.1528 10.6802 93.1071 10.6802C91.8962 10.6802 91.0156 10.9526 90.4102 11.443C89.8048 11.9335 89.4745 12.7508 89.4745 13.8406C89.4745 14.6035 89.8048 15.3119 90.4652 15.8023C91.1257 16.3472 91.8962 16.8376 92.8869 17.328C93.8776 17.8184 94.9234 18.3089 96.0242 18.8538C97.1249 19.3987 98.1707 19.9981 99.1614 20.7609C100.152 21.5238 100.923 22.3957 101.583 23.4855C102.244 24.5753 102.574 25.8831 102.574 27.4088C102.574 29.7519 101.913 31.7681 100.647 33.4573C99.3815 35.1465 97.4001 36.2363 94.8683 36.8357V41.9578H90.08V37.0536C88.6489 36.8902 87.1078 36.5087 85.5117 35.8549C83.9156 35.201 82.5396 34.3836 81.3838 33.3483L84.5761 28.4986C85.8419 29.425 87.0528 30.1333 88.1536 30.6237C89.3094 31.1142 90.4652 31.3321 91.621 31.3321C92.997 31.3321 94.0428 31.0597 94.6482 30.5148C95.3087 29.9699 95.6389 29.098 95.6389 27.9537C95.6389 27.0819 95.3087 26.3735 94.6482 25.7741C93.9877 25.1747 93.2172 24.6298 92.2265 24.0849C91.2358 23.54 90.19 22.9951 89.0893 22.4502C87.9885 21.9052 86.9427 21.2514 85.952 20.4885C84.9613 19.7256 84.1908 18.8538 83.5303 17.8184C82.8698 16.7831 82.5396 15.5843 82.5396 14.1131C82.5396 11.7155 83.2001 9.69934 84.521 8.11911C85.8419 6.53888 87.7133 5.50356 90.0249 5.06763V0H94.8133V4.95865C96.4094 5.17661 97.7854 5.66703 98.9963 6.37541C100.207 7.08379 101.253 7.95564 102.244 8.99096L98.5009 13.1322Z" fill="#333B41"/>
<path fill-rule="evenodd" clip-rule="evenodd" d="M217 189.601L207.944 184.084L187.743 219.946L197.496 224.773L217 189.601Z" fill="#333B41"/>
<path fill-rule="evenodd" clip-rule="evenodd" d="M203.067 182.704C179.383 155.808 158.486 162.704 130.622 180.635C106.242 196.497 88.1303 185.462 70.019 193.049C65.8394 195.118 59.5701 199.945 65.1429 204.773C67.9292 206.842 79.0746 208.911 82.5576 208.221C101.365 204.083 106.938 212.359 135.498 206.842C127.139 213.048 99.9723 208.911 83.2542 210.979C70.019 213.738 48.4247 203.393 65.8394 191.669C58.177 188.221 51.2111 186.152 42.852 185.462C34.493 179.256 21.2578 171.669 14.2919 168.911C8.71919 165.463 -5.21258 166.842 3.84307 175.807C12.8987 184.083 37.2793 202.704 42.1554 205.462C61.6599 217.186 79.7712 225.462 98.5791 235.807C98.5791 235.807 104.848 239.255 117.387 234.427C126.443 230.29 166.845 208.221 176.597 211.669C182.17 213.738 184.956 215.117 184.956 215.117L203.067 182.704Z" stroke="#333B41" stroke-width="1.5"/>
<path fill-rule="evenodd" clip-rule="evenodd" d="M85.346 180.635C86.7392 177.876 88.1324 175.807 90.2222 175.117C92.3119 174.428 93.0085 175.807 94.4017 177.186C95.7949 179.255 96.4915 179.945 98.5812 181.324C99.2778 182.014 100.671 182.014 101.368 182.014L99.9744 181.324C97.8846 179.945 96.4915 178.566 97.188 175.807C97.188 175.117 96.4915 173.738 97.8846 173.738C99.2778 174.428 101.368 175.807 103.457 175.807C103.457 175.807 105.547 176.497 104.851 175.807C104.851 175.117 103.457 174.428 102.761 173.738C98.5812 170.29 98.5812 169.6 98.5812 164.773C99.2778 157.876 96.4915 152.359 91.6153 147.531C80.4699 136.497 85.346 121.325 93.7051 106.842C101.368 93.7388 108.333 91.6699 100.671 75.8079C97.8846 68.9115 93.0085 62.015 92.3119 57.8771C92.3119 56.4978 92.3119 57.1874 92.3119 57.8771C91.6153 62.015 94.4017 68.2218 97.188 74.4287C103.457 88.2216 102.064 89.6009 93.0085 102.015C83.2563 114.428 76.2904 127.532 80.4699 141.325C83.2563 150.98 97.188 160.635 90.2222 166.842C86.7392 169.6 81.8631 176.497 81.1665 180.635C80.4699 182.703 80.4699 182.703 79.7733 184.083C79.0767 184.772 79.7733 184.772 80.4699 184.772C83.9529 184.083 83.9529 182.703 85.346 180.635Z" fill="#333B41"/>
<path d="M131.811 117.155L132.721 116.898L132.765 117.843C133.123 125.642 129.733 135.12 124.082 142.638C119.458 148.789 113.236 153.734 106.177 155.327C107.004 155.406 107.921 155.443 108.911 155.403C113.003 155.238 118.389 153.755 123.815 148.388C132.484 139.138 134.655 127.305 137.36 112.555C137.367 112.515 137.374 112.476 137.382 112.436C134.323 112.542 131.375 113.174 128.391 114.029C126.752 114.499 125.11 115.033 123.433 115.583C123.332 115.616 123.232 115.649 123.131 115.682C121.561 116.197 119.96 116.722 118.319 117.21C105.204 121.997 97.8108 128.075 95.1234 135.323C94.4529 138.68 94.4896 141.908 95.7657 144.435L95.803 144.509L95.8234 144.59C96.1241 145.781 96.8881 146.867 97.9531 147.84C98.9759 148.775 100.243 149.574 101.542 150.23H101.773C105.305 147.02 107.471 144.262 109.775 141.327C109.852 141.23 109.929 141.132 110.006 141.034C111.775 138.782 113.647 136.424 116.279 133.71C113.146 135.534 110.575 137.72 108.503 139.711C107.446 140.726 106.53 141.679 105.728 142.514C105.416 142.84 105.12 143.147 104.841 143.433C104.349 143.936 103.899 144.38 103.5 144.722C103.117 145.049 102.707 145.35 102.297 145.485L102.11 145.547L101.916 145.509C99.9745 145.124 98.6695 144.116 98.1296 142.513C97.6181 140.993 97.848 139.088 98.5557 136.975C99.6816 132.561 103.196 128.984 108.746 125.845C114.312 122.696 122.045 119.918 131.811 117.155Z" stroke="#333B41" stroke-width="1.5"/>
<path d="M64.6292 69.7228C60.3511 68.2439 56.592 66.9445 52.1616 66.3359C52.4016 67.482 52.6322 68.6091 52.8588 69.7171C55.1521 80.929 57.045 90.1831 64.2772 97.3432L64.2871 97.353L64.2966 97.3631C68.6801 102.037 73.188 103.338 76.6541 103.419C77.6789 103.444 78.6165 103.361 79.4366 103.225C73.0446 102.176 67.4828 97.8884 63.4109 92.4645C58.54 85.9762 55.6751 77.7035 56.0347 70.9401L56.0848 69.9975L56.9917 70.2593C65.3658 72.6774 72.0495 75.11 76.9148 77.8249C81.7564 80.5266 84.9152 83.5736 86.0517 87.2818C86.7938 89.1371 86.8218 90.8901 86.2062 92.3121C85.5834 93.7508 84.3393 94.7595 82.7376 95.156L82.5277 95.2079L82.3224 95.1402C81.9305 95.0108 81.5407 94.7477 81.1725 94.4538C80.7927 94.1506 80.3747 93.764 79.9248 93.3295C79.6153 93.0305 79.29 92.7085 78.945 92.3668C78.2669 91.6953 77.5122 90.9481 76.6498 90.1512C75.1381 88.7543 73.3442 87.2531 71.2325 85.9125C73.1207 87.7721 74.5676 89.4592 75.9118 91.1095C76.3376 91.6322 76.7515 92.1491 77.1647 92.6651C78.7596 94.6567 80.3438 96.635 82.5607 98.8864L82.7263 98.7225L82.8732 98.5771L83.0738 98.5275C85.7166 97.8733 87.4974 96.6288 88.0995 94.2443L88.1198 94.1639L88.1572 94.0898C89.443 91.5439 89.443 89.0362 88.1572 86.4903L88.1278 86.4321L88.1089 86.3697C86.1227 79.815 80.1343 74.4226 68.416 71.0103L68.4032 71.0066L68.3906 71.0025C67.078 70.5693 65.8331 70.1389 64.6292 69.7228Z" stroke="#333B41" stroke-width="1.5"/>
<path d="M131.819 50.2578L132.764 50.0025V50.9819C132.764 57.0403 130.077 64.0935 125.817 69.6288C122.45 74.0041 118.026 77.5219 113.06 78.7996C113.436 78.8329 113.834 78.8523 114.251 78.8523C117.2 78.8523 121.18 77.888 125.205 73.9095C131.531 67.0111 133.147 58.3652 135.043 48.2185C135.115 47.8326 135.188 47.4445 135.261 47.0543C130.795 47.7762 126.273 49.0861 121.13 50.9954L121.13 50.9954L121.119 50.9993C111.429 54.4255 106.141 58.4549 104.165 64.3245C103.519 66.2417 103.546 68.7411 104.773 70.5628L104.829 70.6466L104.862 70.7424C105.475 72.5641 106.622 74.2734 108.808 74.9686C110.999 72.7685 112.525 70.9003 114.073 69.0045C114.344 68.6729 114.615 68.3404 114.891 68.0051C115.737 66.9769 116.62 65.9294 117.64 64.8127C116.443 65.7623 115.374 66.7376 114.42 67.6456C114.056 67.9921 113.704 68.3333 113.367 68.6606C112.679 69.3275 112.051 69.9369 111.5 70.4162C111.084 70.7776 110.68 71.0945 110.294 71.3237C109.917 71.5474 109.484 71.7317 109.027 71.7317H108.906L108.792 71.6939C107.534 71.2789 106.662 70.4251 106.233 69.2575C105.815 68.1205 105.839 66.749 106.21 65.2809L106.217 65.2527L106.226 65.2252C107.351 61.8847 109.957 59.1752 114.142 56.7954C118.318 54.4202 124.138 52.3316 131.819 50.2578Z" stroke="#333B41" stroke-width="1.5"/>
</svg>
